<svg xmlns="http://www.w3.org/2000/svg" width="107" height="107" viewBox="0 0 107 107">
  <g id="Grupo_1206719" data-name="Grupo 1206719" transform="translate(-279.076 -7134.216)">
    <g id="Grupo_1206665" data-name="Grupo 1206665">
      <g id="Grupo_156312" data-name="Grupo 156312" transform="translate(279.076 7134.216)">
        <path id="Elipse_5845" data-name="Elipse 5845" d="M53.5,0A53.5,53.5,0,1,1,0,53.5,53.5,53.5,0,0,1,53.5,0Z" transform="translate(0)" fill="#45248e"/>
      </g>
      <g id="Grupo_1206662" data-name="Grupo 1206662" transform="translate(79.58 6913.348)">
        <path id="Trazado_1265173" data-name="Trazado 1265173" d="M263.1,249.819c.565-.948,1.082-1.863,1.647-2.747a12.81,12.81,0,0,1,1.123-1.486.944.944,0,0,1,1.4-.214,1,1,0,0,1,.152,1.483c-.639.953-1.3,1.894-1.917,2.859a10.608,10.608,0,0,0-.569,1.168l2.011,1.857A14.422,14.422,0,0,1,277,243.775a13.85,13.85,0,0,1,10.627,1.446,14.4,14.4,0,0,1,5.749,18.993,14.574,14.574,0,0,1-21.12,5.37l-.612,2.633c.686.35,1.426.793,2.213,1.12a16.971,16.971,0,1,0,12.749-31.45,16.53,16.53,0,0,0-15.27,1.532c-.238.146-.464.317-.714.439a.986.986,0,0,1-1.3-.345.922.922,0,0,1,.189-1.258,11.5,11.5,0,0,1,1.47-.982,18.993,18.993,0,1,1,16.179,34.217,18.712,18.712,0,0,1-16.247-1.389c-.135-.076-.273-.149-.411-.22-.054-.028-.113-.047-.17-.07-.433.146-.387.51-.388.852,0,1.306-.038,2.613.008,3.917a5.389,5.389,0,0,1-2.194,4.821c.954.414,1.829.777,2.69,1.171a23.235,23.235,0,0,1,2.843,1.378,8.6,8.6,0,0,1,4.184,7.284c.094,2.7.049,5.41.019,8.115a2.93,2.93,0,0,1-2.978,3.053c-1.552.066-3.108.024-4.663.026q-2.239,0-4.477,0a4.8,4.8,0,0,1-.835-.059.9.9,0,0,1-.772-.917.961.961,0,0,1,.8-.994,4.9,4.9,0,0,1,.837-.032q4.1,0,8.209,0c.249,0,.5.013.746-.006.741-.057,1.1-.38,1.107-1.109.013-2.8.132-5.606-.051-8.392a6.624,6.624,0,0,0-4.205-5.814c-1.953-.88-3.93-1.705-5.91-2.52a3.938,3.938,0,0,0-1.348-.27c-1.176-.037-2.354-.012-3.554-.012-.822,2.468-2.474,3.933-5.03,3.909-2.506-.023-4.138-1.467-4.931-3.9-1.38,0-2.744-.02-4.107.015a2.858,2.858,0,0,0-.967.311c-1.916.808-3.846,1.587-5.738,2.45a6.831,6.831,0,0,0-4.3,6.428c-.06,2.424-.018,4.85-.015,7.276,0,1.4.234,1.636,1.62,1.636q9.655,0,19.309,0c1.119,0,2.239,0,3.358,0a3.137,3.137,0,0,1,.741.051.954.954,0,0,1,.69.992.872.872,0,0,1-.7.88,5.072,5.072,0,0,1-.926.076q-11.287.006-22.574,0c-1.858,0-2.861-.612-3.366-2.071a4.044,4.044,0,0,1-.176-1.276c-.016-2.394.029-4.789-.016-7.182a9.206,9.206,0,0,1,5.948-8.844c1.266-.488,2.5-1.064,3.825-1.634-.241-.218-.4-.352-.551-.5a4.843,4.843,0,0,1-1.575-3.562c0-1.524-.019-3.047,0-4.57a1.431,1.431,0,0,0-.468-1.141,5.425,5.425,0,0,1-.01-8.038,1.406,1.406,0,0,0,.478-1.135c-.027-1.181.016-2.363-.011-3.544a12.43,12.43,0,0,1,10.676-12.344,11.727,11.727,0,0,1,1.675-.091c.964-.014,1.929.025,2.891-.011A13.549,13.549,0,0,1,263.1,249.819Zm4.8,14.418a29.133,29.133,0,0,0-.2-5.426,7.555,7.555,0,0,0-.249-.991,10.467,10.467,0,0,0-9.958-7.343c-1.4-.029-2.8-.051-4.2.005a10.374,10.374,0,0,0-9.221,5.661c-1.389,2.521-1.222,5.262-1.133,8.054a14.335,14.335,0,0,1,1.521-.116,1.158,1.158,0,0,0,1.077-.542,4.106,4.106,0,0,1,3.1-1.677.981.981,0,0,1,1.2.883,1,1,0,0,1-.908,1.1c-1.706.369-2.27,1.031-2.289,2.74-.015,1.368-.021,2.736,0,4.1a9.373,9.373,0,0,0,.605,3.372,8.734,8.734,0,0,0,8.485,5.557,8.592,8.592,0,0,0,8.155-6.6,19.728,19.728,0,0,0,.326-3.789c.051-1.989.034-3.98.006-5.969a2.423,2.423,0,0,0-2.642-2.6c-.622-.006-1.249.053-1.864-.013a1.972,1.972,0,0,0-2.151,1.224,3.893,3.893,0,0,1-4.017,1.972.878.878,0,0,1-.913-.773,1.436,1.436,0,0,1,.337-.979,1.241,1.241,0,0,1,.86-.241A2.289,2.289,0,0,0,256.1,260.4a3.083,3.083,0,0,1,2.778-1.752c1.055-.05,2.116-.052,3.17,0a4.37,4.37,0,0,1,4.156,4.236c.016.365,0,.73,0,1.116Zm16.816-.836c-.043.29-.068.434-.086.578a5.105,5.105,0,0,1-4.922,4.818,4.566,4.566,0,0,1-4.894-3.306,6.714,6.714,0,0,1-.2-1.75c-.019-3.232,0-6.464-.017-9.7a1.558,1.558,0,0,0-.2-.962c-1.056-1.127-2.17-2.2-3.317-3.341a11.764,11.764,0,0,0-2.493,4.624,1.74,1.74,0,0,0,.1,1.149,17.37,17.37,0,0,1,1.031,3.361,33.7,33.7,0,0,1,.212,4.457,2.632,2.632,0,0,0,.549,1.625,12.406,12.406,0,0,0,14.886,4.122,9.854,9.854,0,0,0,3.042-1.889Zm-10.045-13.1c.691-1.579,1.119-2.127,2.286-2.675a8.725,8.725,0,0,1,12.245,5.232,8.324,8.324,0,0,1-2.193,8.738c-.185.193-.364.391-.469.5l3.408,3.523a12.313,12.313,0,0,0-17.381-17.326Zm-24.4,31.932c.024-.254.047-.407.051-.56.007-.28-.015-.56.006-.838a.73.73,0,0,0-.443-.734,10.771,10.771,0,0,1-4.176-4.518c-.084-.17-.289-.388-.448-.4-.76-.042-1.523-.019-2.33-.019,0,1.463-.07,2.953.02,4.434a2.781,2.781,0,0,0,2.6,2.609C247.1,282.309,248.647,282.231,250.273,282.231Zm17.542-7.179a13.78,13.78,0,0,1-1.643.088,1.111,1.111,0,0,0-1.225.723,9.308,9.308,0,0,1-3.59,3.94,1.6,1.6,0,0,0-.889,1.811c.026.18.047.362.085.661a33.063,33.063,0,0,0,5.1-.141,2.471,2.471,0,0,0,2.13-2.193C267.922,278.35,267.815,276.736,267.815,275.052Zm8.992-19.593-.187.083c0,2.886-.023,5.771.011,8.657a2.538,2.538,0,0,0,1.954,2.527,3.526,3.526,0,0,0,2.185-.221,3.147,3.147,0,0,0,1.831-2.713c.1-.69.256-1.372.406-2.16l-.578-.518a2.389,2.389,0,0,0-.807,1.678,6.374,6.374,0,0,1-.187,1.1,1.843,1.843,0,0,1-1.891,1.345,1.871,1.871,0,0,1-1.763-1.525,5.825,5.825,0,0,1-.032-1.576.949.949,0,0,1,1.445-.761,4.184,4.184,0,0,1,.514.359c.051-.11.093-.192.129-.276a1.173,1.173,0,0,1,.1-.259c.784-1.032-.13-1.914-.249-2.865Zm-24.5,25.844a20.413,20.413,0,0,0,.221,2.659,2.87,2.87,0,0,0,2.843,2.24,3.04,3.04,0,0,0,2.942-2.157,8.974,8.974,0,0,0,.119-2.726c-1.083.11-2.063.288-3.043.286S253.433,281.421,252.311,281.3Zm25.41-27.956c0-.471-.01-.87,0-1.267a1.99,1.99,0,0,1,1.715-2.107,6.884,6.884,0,0,1,1.752-.148,5.589,5.589,0,0,1,4.276,8.819A16.322,16.322,0,0,1,284.284,260a3.852,3.852,0,0,0,.282.333c.126.12.269.222.388.318a6.541,6.541,0,0,0,1.716-8.621,6.754,6.754,0,0,0-8.407-2.79,2.32,2.32,0,0,0-1.636,1.837A1.948,1.948,0,0,0,277.721,253.347ZM244.71,273.093c-.047-2.373-.091-4.649-.137-6.957a3.414,3.414,0,0,0-3.365,1.69,3.333,3.333,0,0,0,.067,3.693A3.418,3.418,0,0,0,244.71,273.093Zm21.4,0a3.413,3.413,0,0,0,3.343-1.433,3.3,3.3,0,0,0,.208-3.761,3.466,3.466,0,0,0-3.447-1.768c0,1.183.013,2.322,0,3.459S266.144,271.876,266.108,273.1Zm14.272-17a4.357,4.357,0,0,1,3.774-2.023,3.339,3.339,0,0,0-4.353-2.047c-.178.867.354,2.074-.993,2.363Zm3.986.1a1.788,1.788,0,0,0-1.648.324c-.971.833-1.013,1.306.077,1.911A3.273,3.273,0,0,0,284.366,256.2Z" transform="translate(-12.026)" fill="#fff"/>
        <path id="Trazado_1265174" data-name="Trazado 1265174" d="M218.481,377.179a8.936,8.936,0,0,1,2.218-5.828,3.888,3.888,0,0,1,.453-.469.993.993,0,0,1,1.357-.017,1.041,1.041,0,0,1,.147,1.286,3.71,3.71,0,0,1-.41.5,6.986,6.986,0,0,0-.051,9.145,5.51,5.51,0,0,1,.422.5,1.024,1.024,0,0,1-.127,1.356.95.95,0,0,1-1.348-.055,9.975,9.975,0,0,1-1.291-1.585A8.91,8.91,0,0,1,218.481,377.179Z" transform="translate(0 -107.281)" fill="#fff"/>
        <path id="Trazado_1265175" data-name="Trazado 1265175" d="M237.592,389.677a4.8,4.8,0,0,1,1.283-3.295,1.018,1.018,0,1,1,1.55,1.286c-1.133,1.577-1.126,2.489.032,4.125a1.011,1.011,0,1,1-1.553,1.278A4.822,4.822,0,0,1,237.592,389.677Z" transform="translate(-15.545 -119.737)" fill="#fff"/>
        <path id="Trazado_1265176" data-name="Trazado 1265176" d="M333.026,430.005a5.633,5.633,0,0,1-4.07-1.591.874.874,0,0,1-.287-1.084,1.339,1.339,0,0,1,.8-.651,1.481,1.481,0,0,1,.978.4,3.556,3.556,0,0,0,3.217.813,10.278,10.278,0,0,0,1.815-.868,2.123,2.123,0,0,1,1-.339.965.965,0,0,1,.459,1.7,5.349,5.349,0,0,1-3.29,1.579C333.407,430,333.158,430,333.026,430.005Z" transform="translate(-89.552 -152.889)" fill="#fff"/>
        <path id="Trazado_1265177" data-name="Trazado 1265177" d="M339.565,393.983c.4.442.792.839,1.146,1.265.467.563.456,1.071.005,1.472a.99.99,0,0,1-1.483-.124c-.528-.521-1.036-1.066-1.514-1.633a1.3,1.3,0,0,1-.051-1.852c.484-.642,1-1.263,1.529-1.867a1.027,1.027,0,0,1,1.482-.207c.465.372.5.887.067,1.471C340.379,393,339.978,393.471,339.565,393.983Z" transform="translate(-96.655 -123.714)" fill="#fff"/>
        <path id="Trazado_1265178" data-name="Trazado 1265178" d="M372.6,382.6a8.209,8.209,0,0,1-.008,1.024,1.066,1.066,0,0,1-1.026.9,1.022,1.022,0,0,1-.938-.889,14.075,14.075,0,0,1-.005-2.047.946.946,0,0,1,1.022-.877.971.971,0,0,1,.947.864A8.139,8.139,0,0,1,372.6,382.6Z" transform="translate(-123.728 -115.505)" fill="#fff"/>
        <path id="Trazado_1265179" data-name="Trazado 1265179" d="M322.45,382.554c0-.279-.022-.561,0-.838a1,1,0,0,1,.929-.99.961.961,0,0,1,1.06.839,11.084,11.084,0,0,1-.012,2.133,1.038,1.038,0,0,1-.987.839,1.1,1.1,0,0,1-.988-.958,1.192,1.192,0,0,1-.01-.186c0-.279,0-.559,0-.838Z" transform="translate(-84.564 -115.511)" fill="#fff"/>
      </g>
    </g>
  </g>
</svg>
